<?xml version="1.0" standalone="no"?><!DOCTYPE svg PUBLIC "-//W3C//DTD SVG 1.1//EN" "http://www.w3.org/Graphics/SVG/1.1/DTD/svg11.dtd"><svg t="1650852153359" class="icon" viewBox="0 0 1024 1024" version="1.1" xmlns="http://www.w3.org/2000/svg" p-id="10309" xmlns:xlink="http://www.w3.org/1999/xlink" width="200" height="200"><defs><style type="text/css">@font-face { font-family: feedback-iconfont; src: url("//at.alicdn.com/t/font_1031158_u69w8yhxdu.woff2?t=1630033759944") format("woff2"), url("//at.alicdn.com/t/font_1031158_u69w8yhxdu.woff?t=1630033759944") format("woff"), url("//at.alicdn.com/t/font_1031158_u69w8yhxdu.ttf?t=1630033759944") format("truetype"); }
</style></defs><path d="M716.8 166.4h-89.6v-25.6c0-14.08-11.52-25.6-25.6-25.6h-102.4c-14.08 0-25.6 11.52-25.6 25.6v25.6h-89.6c-14.08 0-25.6 11.52-25.6 25.6v691.2c0 14.08 11.52 25.6 25.6 25.6h332.8c14.08 0 25.6-11.52 25.6-25.6V192c0-14.08-11.52-25.6-25.6-25.6z" fill="#B8CA43" p-id="10310"></path><path d="M716.8 921.6H384c-21.76 0-38.4-16.64-38.4-38.4V192c0-21.76 16.64-38.4 38.4-38.4h76.8v-12.8c0-21.76 16.64-38.4 38.4-38.4h102.4c21.76 0 38.4 16.64 38.4 38.4v12.8h76.8c21.76 0 38.4 16.64 38.4 38.4v691.2c0 21.76-16.64 38.4-38.4 38.4zM384 179.2c-7.68 0-12.8 5.12-12.8 12.8v691.2c0 7.68 5.12 12.8 12.8 12.8h332.8c7.68 0 12.8-5.12 12.8-12.8V192c0-7.68-5.12-12.8-12.8-12.8h-89.6c-7.68 0-12.8-5.12-12.8-12.8v-25.6c0-7.68-5.12-12.8-12.8-12.8h-102.4c-7.68 0-12.8 5.12-12.8 12.8v25.6c0 7.68-5.12 12.8-12.8 12.8h-89.6z" fill="#231C1C" p-id="10311"></path></svg>