<?xml version="1.0" standalone="no"?><!DOCTYPE svg PUBLIC "-//W3C//DTD SVG 1.1//EN" "http://www.w3.org/Graphics/SVG/1.1/DTD/svg11.dtd"><svg t="1650851966750" class="icon" viewBox="0 0 1024 1024" version="1.1" xmlns="http://www.w3.org/2000/svg" p-id="2868" xmlns:xlink="http://www.w3.org/1999/xlink" width="200" height="200"><defs><style type="text/css">@font-face { font-family: feedback-iconfont; src: url("//at.alicdn.com/t/font_1031158_u69w8yhxdu.woff2?t=1630033759944") format("woff2"), url("//at.alicdn.com/t/font_1031158_u69w8yhxdu.woff?t=1630033759944") format("woff"), url("//at.alicdn.com/t/font_1031158_u69w8yhxdu.ttf?t=1630033759944") format("truetype"); }
</style></defs><path d="M812 165.6h-600c-4.8 0-8-3.2-8-8s3.2-8 8-8h600c4.8 0 8 3.2 8 8s-4 8-8 8zM812 834.4h-600c-4.8 0-8-3.2-8-8s3.2-8 8-8h600c4.8 0 8 3.2 8 8 0 4-4 8-8 8z" p-id="2869"></path><path d="M812 1020h-600c-8.8 0-16-7.2-16-16V20c0-8.8 7.2-16 16-16h600c8.8 0 16 7.2 16 16v984c0 8.8-7.2 16-16 16z m-584-32h568V36h-568v952z" p-id="2870"></path><path d="M592.8 101.6H431.2c-4.8 0-8-3.2-8-8s3.2-8 8-8h162.4c4.8 0 8 3.2 8 8-0.8 4.8-4 8-8.8 8zM512 966.4c-32 0-57.6-25.6-57.6-57.6s25.6-57.6 57.6-57.6 57.6 25.6 57.6 57.6-25.6 57.6-57.6 57.6z m0-99.2c-23.2 0-41.6 18.4-41.6 41.6 0 23.2 18.4 41.6 41.6 41.6 23.2 0 41.6-18.4 41.6-41.6 0-23.2-18.4-41.6-41.6-41.6z" p-id="2871"></path></svg>